<svg width="24" height="24" viewBox="0 0 24 24" fill="none" xmlns="http://www.w3.org/2000/svg">
  <path d="M12 8.2a3.8 3.8 0 1 0 0 7.6 3.8 3.8 0 0 0 0-7.6Z" stroke="#a6adc8" stroke-width="1.8"/>
  <path d="M19.4 13.4a7.8 7.8 0 0 0 0-2.8l2-1.5-2-3.5-2.4 1a8.2 8.2 0 0 0-2.4-1.4L14.2 2h-4.4l-.4 3.2A8.2 8.2 0 0 0 7 6.6l-2.4-1-2 3.5 2 1.5a7.8 7.8 0 0 0 0 2.8l-2 1.5 2 3.5 2.4-1a8.2 8.2 0 0 0 2.4 1.4l.4 3.2h4.4l.4-3.2a8.2 8.2 0 0 0 2.4-1.4l2.4 1 2-3.5-2-1.5Z" stroke="#a6adc8" stroke-width="1.5" stroke-linejoin="round"/>
</svg>
