<svg width="843" height="843" viewBox="0 0 843 843" fill="none" xmlns="http://www.w3.org/2000/svg">
<g transform="translate(61, 0)">
<path fill-rule="evenodd" clip-rule="evenodd" d="M142.555 86.5744C194.99 69.7284 285.409 33.9164 344.55 6.56936C352.25 3.00936 359.389 0.0533597 360.414 0.000359748C361.439 -0.0526403 375.282 5.75736 391.176 12.9104C505.223 64.2354 604.29 98.2274 688.55 114.942C700.1 117.234 710.285 119.5 711.184 119.979C713.155 121.03 713.485 122.702 715.996 144.404C719.28 172.78 720.1 190.969 720.085 235.13C720.064 297.374 717.983 329.259 710.536 381.404C694.247 495.466 658.956 586.732 601.09 664.442C586.429 684.131 574.753 697.38 552.636 719.423C517.067 754.874 481.203 782.353 438.325 807.01C414.394 820.772 371.991 840.566 362.284 842.507C358.037 843.357 338.082 835.245 310.05 821.273C269.615 801.12 236.759 779.602 200.995 749.852C186.53 737.819 151.224 702.899 138.869 688.404C107.886 652.055 76.6079 601.224 57.0289 555.404C50.2229 539.478 37.2079 502.842 32.1599 485.404C1.68187 380.119 -8.25316 238.149 7.19184 128.625C7.94584 123.278 8.79789 120.577 9.91889 119.982C10.8159 119.507 16.4999 118.135 22.5499 116.935C62.3149 109.047 110.743 96.7954 142.555 86.5744ZM381.634 104.981C440.253 130.42 526.885 162.9 572.475 176.531C579.054 178.498 595.037 182.922 607.993 186.362L631.55 192.617L632.183 202.511C633.2 218.43 633.116 275.927 632.048 294.404C628.779 350.949 619.166 411.531 606.053 458.23C596.073 493.771 578.244 536.966 561.607 565.904C521.136 636.304 467.289 690.776 398.05 731.359C386.289 738.253 362.016 750.904 360.55 750.904C358.924 750.904 334.154 737.891 320.55 729.89C306.433 721.587 280.683 703.876 267.788 693.599C231.647 664.797 202.328 632.734 176.626 593.904C155.183 561.509 143.2 537.936 127.406 497.082C110.131 452.397 95.8789 382.584 89.3979 310.904C87.4759 289.635 86.7989 217.202 88.3709 200.884L89.1909 192.364L105.978 188.126C130.503 181.934 151.862 175.692 175.05 167.942C223.528 151.738 292.898 125.216 336.05 106.388C344.025 102.908 352.8 99.1504 355.55 98.0374C358.3 96.9244 360.588 95.9894 360.634 95.9594C360.681 95.9294 370.131 99.9894 381.634 104.981Z" fill="#0B3168"/>
<path fill-rule="evenodd" clip-rule="evenodd" d="M252.07 222.686C265.786 181.746 300.218 152.206 342.05 145.491C353.603 143.636 373.266 144.034 384.05 146.341C419.92 154.015 448.206 176.384 463.523 209.192C472.459 228.333 475.035 242.635 475.044 273.154L475.05 293.904L478.8 293.912C501.707 293.958 523.231 308.869 530.029 329.404C532.816 337.822 534.007 347.421 534.03 361.654L534.05 373.904H446.145H358.241L355.023 368.154C334.548 331.563 293.448 307.904 250.361 307.904C232.417 307.904 220.035 310.312 204.017 316.917C200.011 318.569 196.516 319.704 196.251 319.438C195.412 318.599 203.112 309.901 208.377 305.74C217.956 298.168 229.667 293.964 241.3 293.921L246.05 293.904V271.535C246.05 246.636 247.216 237.172 252.07 222.686ZM369.961 196.959C394.178 200.889 413.127 217.332 420.601 240.904C421.987 245.274 422.439 251.285 422.802 270.154L423.258 293.904H360.576H297.894L298.24 269.654C298.572 246.364 298.691 245.115 301.238 238.097C306.904 222.481 318.17 209.811 332.55 202.88C345.332 196.719 357.052 194.865 369.961 196.959Z" fill="#0B3168"/>
<path fill-rule="evenodd" clip-rule="evenodd" d="M171.1 354.992C186.671 339.266 209.141 327.227 229.959 323.458C245.292 320.682 268.454 322.046 282.55 326.557C290.588 329.129 306.682 337.756 314.925 343.912C328.148 353.786 336.492 363.735 347.205 382.404L350.649 388.404L452.099 388.616L553.55 388.828L556.417 392.116C557.994 393.924 564.744 401.443 571.417 408.824C585.065 423.921 587.034 426.523 587.043 429.478C587.049 431.333 582.546 436.825 557.377 465.654L551.921 471.904H522.208C498.496 471.904 492.097 471.624 490.523 470.518C489.438 469.755 485.636 465.705 482.075 461.518C477.919 456.632 474.867 453.904 473.557 453.904C472.267 453.904 468.458 457.218 463.215 462.904L454.915 471.904H449.553H444.192L434.871 461.911C426.393 452.821 425.223 451.917 421.933 451.911C418.644 451.905 417.463 452.809 408.89 461.904L399.464 471.904H375.283H351.102L347.101 479.922C341.081 491.985 335.642 499.508 326.143 508.904C306.279 528.553 283.087 539.021 255.96 540.582C217.33 542.804 182.677 525.849 160.004 493.63C130.382 451.539 135.209 391.241 171.1 354.992ZM264.508 374.435C275.164 377.211 288.336 385.88 294.015 393.855L296.049 396.711L287.525 402.807C282.837 406.161 278.675 408.904 278.276 408.904C277.877 408.904 276.318 407.36 274.812 405.473C273.269 403.539 269.13 400.593 265.33 398.723C259.171 395.692 257.802 395.408 249.568 395.445C241.847 395.48 239.741 395.878 234.924 398.209C227.963 401.578 220.757 409.125 217.282 416.686C213.732 424.411 213.585 436.589 216.94 445.151C219.913 452.74 227.551 461.026 234.86 464.591C239.781 466.992 241.767 467.37 249.55 467.386C257.17 467.401 259.394 467.007 264.05 464.818C267.075 463.395 271.624 460.123 274.158 457.546L278.767 452.862L287.973 458.907L297.18 464.952L294.208 468.678C287.278 477.365 277.823 483.676 266.55 487.138C257.304 489.977 242.489 489.987 232.837 487.16C219.915 483.374 207.485 473.418 199.757 460.664C193.834 450.891 192.542 445.423 192.602 430.404C192.664 415.192 194.052 410.554 202.18 398.402C210.002 386.706 219.151 379.594 232.05 375.18C240.059 372.439 255.487 372.085 264.508 374.435ZM551.96 412.379C554.21 415.941 556.05 419.093 556.05 419.384C556.05 419.676 511.613 419.799 457.3 419.659L358.55 419.404L357.837 413.904C357.444 410.879 357.318 407.842 357.555 407.154C357.897 406.166 377.873 405.904 452.929 405.904H547.871L551.96 412.379Z" fill="#0B3168"/>
<path fill-rule="evenodd" clip-rule="evenodd" d="M404.361 484.808C405.684 484.205 409.785 480.38 413.473 476.308C417.161 472.236 420.498 468.904 420.889 468.904C421.28 468.904 424.964 472.317 429.075 476.49C433.186 480.662 437.52 484.459 438.706 484.929C439.892 485.399 461.339 485.871 486.367 485.979C511.394 486.087 532.434 486.523 533.121 486.948C534.56 487.837 533.858 511.949 532.005 525.275C530.348 537.183 524.637 556.678 519.309 568.611C504.515 601.746 477.051 634.529 441.323 661.702C422.191 676.253 390.917 694.819 367.95 705.261L360.35 708.717L346.45 701.986C278.409 669.037 227.81 623.466 204.164 573.838C197.408 559.659 191.613 543.904 192.769 542.862C193.198 542.475 198.231 543.936 203.953 546.108C218.183 551.511 229.285 553.842 244.05 554.525C258.281 555.184 270.932 553.626 285.55 549.416C314.697 541.022 341.367 519.62 356.58 492.417L360.222 485.904H381.089C394.089 485.904 402.863 485.491 404.361 484.808Z" fill="#0B3168"/>
</g>
</svg>
